<svg xmlns="http://www.w3.org/2000/svg" viewBox="0 0 512.79 720"><defs><style>.cls-1{fill:none;}.cls-2{fill:#16191a;}.cls-3{fill:#32aace;}.cls-4{fill:#fff;}</style></defs><g id="Layer_2" data-name="Layer 2"><g id="Layer_1-2" data-name="Layer 1"><path class="cls-1" d="M106.23,66.16H87.68l-23,42.38v14.89H89.79v16.7h16.44v-16.7h5.49V108.54h-5.49ZM89.79,108.54H80.23L89.79,90Z"/><path class="cls-1" d="M402.61,581.41v16.7h-5.5v14.95h5.5v42.32h18.54l23-42.32V598.11H419v-16.7Zm26,31.65L419,631.6V613.06Z"/><path class="cls-2" d="M476,0H36.78A36.81,36.81,0,0,0,0,36.78V683.22A36.81,36.81,0,0,0,36.78,720H476a36.85,36.85,0,0,0,36.83-36.78V36.78A36.85,36.85,0,0,0,476,0Z"/><path class="cls-2" d="M450.33,46.23H62.41A16.17,16.17,0,0,0,46.23,62.41V657.59a16.17,16.17,0,0,0,16.18,16.18H450.33a16.22,16.22,0,0,0,16.23-16.18V62.41A16.22,16.22,0,0,0,450.33,46.23Zm6,611.36a5.93,5.93,0,0,1-6,5.91H62.41a5.91,5.91,0,0,1-5.91-5.91V600.32a116.5,116.5,0,0,0,16.65,14.84c20.75,14.85,45.76,22.29,73.76,22.29,27,0,56.65-6.93,87.83-20.8,62.62-27.89,123.85-80.54,172.49-148.29a516.85,516.85,0,0,0,49.06-83.63Zm0-298.54a498,498,0,0,1-57.38,103.3c-47.62,66.31-107.41,117.78-168.33,144.9-60,26.76-113.77,26.61-151.43-.46a104.07,104.07,0,0,1-22.65-22.4V361a496.67,496.67,0,0,1,57.38-103.3c47.56-66.31,107.35-117.78,168.27-144.95C342.2,86,396,86.19,433.58,113.16a107.16,107.16,0,0,1,22.71,22.45Zm0-239.37a114.88,114.88,0,0,0-16.7-14.84C398.86,75.61,341.48,75.1,278,103.35c-62.56,27.89-123.84,80.59-172.43,148.34A512.5,512.5,0,0,0,56.5,335.32V62.41a5.94,5.94,0,0,1,5.91-5.91H450.33a6,6,0,0,1,6,5.91Z"/><path class="cls-2" d="M337.12,351.86h-8.58V216.71a10.3,10.3,0,0,0-10.28-10.27H254.62a10.29,10.29,0,0,0-9,5.39l-79,145.42a10.16,10.16,0,0,0-1.23,4.88v51.21a10.31,10.31,0,0,0,10.27,10.28h75.77v47a10.3,10.3,0,0,0,10.27,10.27h56.55a10.3,10.3,0,0,0,10.28-10.27v-47h8.58a10.31,10.31,0,0,0,10.27-10.28V362.13A10.3,10.3,0,0,0,337.12,351.86Zm0,61.48H318.26v57.28H261.71V413.34h-86V362.13l79-145.42h63.64V362.13h18.86Z"/><path class="cls-2" d="M261.71,362.13V298.49L229,362.13Zm-10.27-10.27h-5.6l5.6-10.94Z"/><polygon class="cls-3" points="89.79 108.54 89.79 89.99 80.23 108.54 89.79 108.54"/><polygon class="cls-3" points="419.05 631.6 428.6 613.05 419.05 613.05 419.05 631.6"/><path class="cls-3" d="M450.32,56.5H62.4a6,6,0,0,0-5.91,5.91V335.32a513.08,513.08,0,0,1,49.07-83.62C154.15,184,215.44,131.22,278,103.35c63.47-28.25,120.85-27.75,161.6,1.5a112.44,112.44,0,0,1,16.69,14.84V62.41A5.94,5.94,0,0,0,450.32,56.5Z"/><path class="cls-3" d="M234.75,616.64c-31.19,13.88-60.88,20.82-87.85,20.82-28,0-53-7.44-73.75-22.28a121,121,0,0,1-16.66-14.85v57.25a5.93,5.93,0,0,0,5.91,5.91H450.32a5.92,5.92,0,0,0,6-5.91V384.73a515.16,515.16,0,0,1-49.07,83.63C358.6,536.11,297.34,588.77,234.75,616.64Z"/><path class="cls-3" d="M254.62,216.71l-79,145.42v51.21h86v57.28h56.55V413.34h18.86V362.13H318.26V216.71Zm7.09,145.42H229l32.72-63.64Z"/><polygon class="cls-4" points="251.44 351.86 251.44 340.92 245.84 351.86 251.44 351.86"/><path class="cls-4" d="M433.58,113.16c-37.6-27-91.38-27.12-151.43-.41-60.92,27.17-120.71,78.64-168.27,145A496.67,496.67,0,0,0,56.5,361V584.39a104.07,104.07,0,0,0,22.65,22.4c37.66,27.07,91.44,27.22,151.43.46,60.92-27.12,120.71-78.59,168.33-144.9a498,498,0,0,0,57.38-103.3V135.61A107.16,107.16,0,0,0,433.58,113.16ZM347.39,413.34a10.31,10.31,0,0,1-10.27,10.28h-8.58v47a10.3,10.3,0,0,1-10.28,10.27H261.71a10.3,10.3,0,0,1-10.27-10.27v-47H175.67a10.31,10.31,0,0,1-10.27-10.28V362.13a10.16,10.16,0,0,1,1.23-4.88l79-145.42a10.29,10.29,0,0,1,9-5.39h63.64a10.3,10.3,0,0,1,10.28,10.27V351.86h8.58a10.3,10.3,0,0,1,10.27,10.27Z"/><path class="cls-4" d="M476,10.27H36.78A26.58,26.58,0,0,0,10.27,36.78V683.22a26.54,26.54,0,0,0,26.51,26.51H476a26.55,26.55,0,0,0,26.55-26.51V36.78A26.58,26.58,0,0,0,476,10.27Zm-9.4,349.65V657.59a16.22,16.22,0,0,1-16.23,16.18H62.41a16.17,16.17,0,0,1-16.18-16.18V62.41A16.17,16.17,0,0,1,62.41,46.23H450.33a16.22,16.22,0,0,1,16.23,16.18Z"/><path class="cls-4" d="M89.79,140.13h16.44v-16.7h5.49V108.54h-5.49V66.16H87.68l-23,42.38v14.89H89.79Zm-9.56-31.59L89.79,90v18.55Z"/><path class="cls-4" d="M419,581.41H402.61v16.7h-5.5v14.95h5.5v42.32h18.54l23-42.32V598.11H419Zm9.56,31.65L419,631.6V613.06Z"/></g></g></svg> 