<svg xmlns="http://www.w3.org/2000/svg" viewBox="0 0 512.74 720"><defs><style>.cls-1{fill:#16191a;}.cls-2{fill:#e00803;}.cls-3{fill:#fff;}</style></defs><g id="Layer_2" data-name="Layer 2"><g id="Layer_1-2" data-name="Layer 1"><path class="cls-1" d="M427.26,634.68c0,5.65-2.46,6.93-4.62,6.93s-3.95-1.28-3.95-6.93a12.62,12.62,0,0,1,4.31-9S427.26,629.34,427.26,634.68Z"/><path class="cls-1" d="M428.09,600.42c0,5.65-4.78,10.68-4.78,10.68s-5.75-4.16-5.75-10.68c0-5.65,2.77-7,5-7S428.09,594.77,428.09,600.42Z"/><rect class="cls-1" width="512.74" height="720" rx="36.78"/><path class="cls-2" d="M82.8,84.81c0-5.66,2.52-6.94,4.68-6.94s4,1.28,4,6.94a12.4,12.4,0,0,1-4.36,9S82.8,90.15,82.8,84.81Z"/><path class="cls-2" d="M92.51,119.07c0,5.65-2.77,7-4.93,7s-5.55-1.38-5.55-7,4.73-10.69,4.73-10.69S92.51,112.49,92.51,119.07Z"/><path class="cls-2" d="M427.26,634.68c0,5.65-2.46,6.93-4.62,6.93s-3.95-1.28-3.95-6.93a12.62,12.62,0,0,1,4.31-9S427.26,629.34,427.26,634.68Z"/><path class="cls-2" d="M428.09,600.42c0,5.65-4.78,10.68-4.78,10.68s-5.75-4.16-5.75-10.68c0-5.65,2.77-7,5-7S428.09,594.77,428.09,600.42Z"/><path class="cls-2" d="M450.34,56.5H62.4a5.9,5.9,0,0,0-5.9,5.91v272.9a518.28,518.28,0,0,1,49-83.62C154.15,183.94,215.37,131.25,278,103.35c63.5-28.25,120.87-27.75,161.59,1.5a113.93,113.93,0,0,1,16.66,14.84V62.41A5.91,5.91,0,0,0,450.34,56.5Z"/><path class="cls-2" d="M177.93,405.18c0,48.69,26.71,72.88,78.59,72.88,55.84,0,78.23-24.19,78.23-72.88,0-43.05-32.67-65.44-32.67-65.44s25.59-22,25.59-57.95c0-41.6-23.12-69.34-71.51-69.34-52.24,0-71.09,27.74-71.09,69.34,0,35.91,25.58,59,25.58,59S177.93,362.13,177.93,405.18Zm78.23-146.86c7.86,0,14.23,4.62,14.23,24.86,0,19.93-15.61,32.36-15.61,32.36s-15.31-13.15-15.31-32.36C239.47,262.94,248.36,258.32,256.16,258.32ZM253.7,367.83s20.6,14.95,20.6,38.42c0,20.24-9.92,25.23-17.78,25.23s-19.88-5-19.88-25.23S253.7,367.83,253.7,367.83Z"/><path class="cls-2" d="M234.75,616.66c-31.19,13.87-60.88,20.84-87.88,20.84-28,0-53-7.44-73.72-22.34A109.42,109.42,0,0,1,56.5,600.38V657.6a5.87,5.87,0,0,0,5.9,5.9H450.34a5.88,5.88,0,0,0,5.91-5.9V384.72a518.24,518.24,0,0,1-49,83.63C358.59,536.1,297.31,588.75,234.75,616.66Z"/><path class="cls-3" d="M476,10.27H36.78A26.54,26.54,0,0,0,10.27,36.78V683.22a26.51,26.51,0,0,0,26.51,26.51H476a26.5,26.5,0,0,0,26.5-26.51V36.78A26.53,26.53,0,0,0,476,10.27Zm-9.45,349.65V657.59a16.17,16.17,0,0,1-16.18,16.18H62.41a16.17,16.17,0,0,1-16.18-16.18V62.41A16.17,16.17,0,0,1,62.41,46.23H450.33a16.17,16.17,0,0,1,16.18,16.18Z"/><path class="cls-3" d="M433.58,113.21c-37.6-27-91.43-27.17-151.43-.46-60.92,27.17-120.71,78.64-168.27,145A495.65,495.65,0,0,0,56.5,361V584.39a104.11,104.11,0,0,0,22.66,22.4c37.6,27.07,91.38,27.22,151.42.46,60.92-27.12,120.71-78.59,168.28-144.9a493.89,493.89,0,0,0,57.37-103.3V135.66A103.26,103.26,0,0,0,433.58,113.21ZM256.52,488.34c-58.14,0-88.86-28.77-88.86-83.16a89.6,89.6,0,0,1,28.2-65.44c-8.58-10.79-21.06-31.13-21.06-57.95,0-52.08,28.15-79.61,81.36-79.61,51.22,0,81.78,29.74,81.78,79.61,0,26.77-12.43,46.59-21.06,57.12,11,10.84,28.15,33,28.15,66.27C345,461.11,316.06,488.34,256.52,488.34Z"/><path class="cls-3" d="M246.92,406.25c0,9.66,3.39,14.95,9.6,14.95,5,0,7.5-5,7.5-14.95,0-9.65-4.78-17.61-9.14-23C251,389.25,246.92,397.68,246.92,406.25Z"/><path class="cls-3" d="M260.12,283.18c0-12-2.52-14.38-2.57-14.43a3.91,3.91,0,0,0-1.39-.16c-1.59,0-6.42,0-6.42,14.59,0,6.52,2.52,12.28,5.19,16.59A30.71,30.71,0,0,0,260.12,283.18Z"/><path class="cls-3" d="M65.7,118.76c0,13.56,7.39,20.29,21.88,20.29,15.56,0,21.78-6.73,21.78-20.29a23.25,23.25,0,0,0-9.09-18.24,22.77,22.77,0,0,0,7.09-16.13c0-11.6-6.43-19.31-19.88-19.31-14.54,0-19.83,7.71-19.83,19.31,0,10,7.14,16.44,7.14,16.44A22.32,22.32,0,0,0,65.7,118.76ZM87.48,77.87c2.15,0,4,1.28,4,6.94a12.4,12.4,0,0,1-4.36,9s-4.27-3.64-4.27-9C82.8,79.15,85.32,77.87,87.48,77.87Zm-.72,30.51s5.75,4.11,5.75,10.69c0,5.65-2.77,7-4.93,7s-5.55-1.38-5.55-7S86.76,108.38,86.76,108.38Z"/><path class="cls-3" d="M444.42,600.73c0-13.56-7.45-20.34-21.88-20.34-15.57,0-21.78,6.78-21.78,20.34a23.07,23.07,0,0,0,9.09,18.18,22.9,22.9,0,0,0-7.14,16.18c0,11.56,6.47,19.26,19.93,19.26,14.54,0,19.78-7.7,19.78-19.26,0-10-7.09-16.44-7.09-16.44A22.29,22.29,0,0,0,444.42,600.73Zm-21.78,40.88c-2.21,0-3.95-1.28-3.95-6.93a12.62,12.62,0,0,1,4.31-9s4.26,3.7,4.26,9C427.26,640.33,424.8,641.61,422.64,641.61Zm.67-30.51s-5.75-4.16-5.75-10.68c0-5.65,2.77-7,5-7s5.55,1.39,5.55,7S423.31,611.1,423.31,611.1Z"/></g></g></svg> 