<svg xmlns="http://www.w3.org/2000/svg" viewBox="0 0 512.79 720"><defs><style>.cls-1{fill:#16191a;}.cls-2{fill:#32aace;}.cls-3{fill:#fff;}</style></defs><g id="Layer_2" data-name="Layer 2"><g id="Layer_1-2" data-name="Layer 1"><path class="cls-1" d="M476,0H36.83A36.85,36.85,0,0,0,0,36.78V683.22A36.85,36.85,0,0,0,36.83,720H476a36.81,36.81,0,0,0,36.78-36.78V36.78A36.81,36.81,0,0,0,476,0Z"/><path class="cls-2" d="M450.38,56.5H62.48a5.93,5.93,0,0,0-6,5.91v272.9a514.28,514.28,0,0,1,49.06-83.62C154.19,183.94,215.44,131.25,278,103.35c63.47-28.25,120.9-27.75,161.59,1.5a114.16,114.16,0,0,1,16.69,14.84V62.41A6,6,0,0,0,450.38,56.5Z"/><polygon class="cls-2" points="273.99 470.62 324.84 216.71 187.95 216.71 187.95 265.41 255.14 265.41 214.25 470.62 273.99 470.62"/><path class="cls-2" d="M234.79,616.66c-31.19,13.87-60.91,20.84-87.88,20.84-27.93,0-53-7.44-73.72-22.34a112.57,112.57,0,0,1-16.68-14.78V657.6a5.91,5.91,0,0,0,6,5.9h387.9a5.92,5.92,0,0,0,5.91-5.9V384.72a512.08,512.08,0,0,1-49.06,83.63C358.6,536.1,297.35,588.75,234.79,616.66Z"/><path class="cls-3" d="M476,10.27H36.83A26.59,26.59,0,0,0,10.27,36.78V683.22a26.55,26.55,0,0,0,26.56,26.51H476a26.53,26.53,0,0,0,26.5-26.51V36.78A26.57,26.57,0,0,0,476,10.27Zm-9.45,349.65V657.59a16.17,16.17,0,0,1-16.18,16.18H62.46a16.22,16.22,0,0,1-16.23-16.18V62.41A16.22,16.22,0,0,1,62.46,46.23H450.38a16.17,16.17,0,0,1,16.18,16.18Z"/><path class="cls-3" d="M433.63,113.21C396,86.19,342.2,86,282.21,112.75c-61,27.17-120.71,78.64-168.33,145A498,498,0,0,0,56.5,361V584.39a104.11,104.11,0,0,0,22.66,22.4c37.65,27.07,91.43,27.22,151.42.46,61-27.12,120.71-78.59,168.33-144.9a498,498,0,0,0,57.38-103.3V135.66A104.62,104.62,0,0,0,433.63,113.21ZM334.91,218.72l-50.86,253.9A10.26,10.26,0,0,1,274,480.89H214.25a10.35,10.35,0,0,1-8-3.75,10.16,10.16,0,0,1-2.11-8.53L242.6,275.68H188a10.3,10.3,0,0,1-10.27-10.27v-48.7A10.3,10.3,0,0,1,188,206.44H324.84a10.23,10.23,0,0,1,10.07,12.28Z"/><polygon class="cls-3" points="74.84 141.15 92.25 141.15 107.1 67.19 67.19 67.19 67.19 81.42 86.76 81.42 74.84 141.15"/><polygon class="cls-3" points="436.61 578.28 419.2 578.28 404.41 652.25 444.27 652.25 444.27 638.07 424.7 638.07 436.61 578.28"/></g></g></svg>