<svg xmlns="http://www.w3.org/2000/svg" viewBox="0 0 512.75 720"><defs><style>.cls-1{fill:#16191a;}.cls-2{fill:#fff;}.cls-3{fill:#e00803;}.cls-4{fill:#e00803;}.cls-5{fill:#e00803;}.cls-6{fill:#e00803;}</style></defs><g id="Layer_2" data-name="Layer 2"><g id="Layer_1-2" data-name="Layer 1"><rect class="cls-1" width="512.75" height="720" rx="36.79"/><path class="cls-2" d="M476,10.27H36.79A26.55,26.55,0,0,0,10.27,36.79V683.21a26.55,26.55,0,0,0,26.52,26.52H476a26.55,26.55,0,0,0,26.52-26.52V36.79A26.55,26.55,0,0,0,476,10.27ZM466.53,359.9V657.58a16.21,16.21,0,0,1-16.2,16.19H62.42a16.2,16.2,0,0,1-16.19-16.19V62.42A16.2,16.2,0,0,1,62.42,46.23H450.33a16.21,16.21,0,0,1,16.2,16.19Z"/><path class="cls-3" d="M433.58,113.18a105.55,105.55,0,0,0-35.13-16.26L267.81,354.85H456.25V135.63A105.13,105.13,0,0,0,433.58,113.18Z"/><path class="cls-4" d="M230.58,607.25c60.94-27.14,120.7-78.61,168.3-144.91a498.56,498.56,0,0,0,54.81-97.21H262.61l-132.2,261C160,629.73,194.14,623.48,230.58,607.25Z"/><path class="cls-5" d="M282.18,112.76c-60.94,27.14-120.71,78.61-168.3,144.93a497.86,497.86,0,0,0-54.79,97.16h197.2L388.06,94.69C357.15,89.5,321,95.46,282.18,112.76Z"/><path class="cls-6" d="M79.15,606.79a107,107,0,0,0,40.61,17.63L251.09,365.13H56.5V584.39A104.29,104.29,0,0,0,79.15,606.79Z"/><path class="cls-1" d="M456.26,62.41v57.28a114.16,114.16,0,0,0-16.69-14.84C398.85,75.6,341.48,75.1,278,103.38c-62.6,27.87-123.85,80.56-172.47,148.31a512.83,512.83,0,0,0-49,83.62V62.41a5.92,5.92,0,0,1,5.9-5.91H450.32A5.93,5.93,0,0,1,456.26,62.41Z"/><path class="cls-1" d="M456.26,384.72V657.6a5.93,5.93,0,0,1-5.94,5.9H62.41a5.91,5.91,0,0,1-5.9-5.9V600.31a108.8,108.8,0,0,0,16.65,14.82,118,118,0,0,0,48.25,20h.07a142.81,142.81,0,0,0,25.4,2.31c27,0,56.69-6.94,87.88-20.84,62.56-27.88,123.81-80.53,172.47-148.28A514.06,514.06,0,0,0,456.26,384.72Z"/><path class="cls-3" d="M129.94,78.33l-15.77,32.55h20.18c6.41-15,5.09-27.39-.1-31.12A9.15,9.15,0,0,0,129.94,78.33Z"/><path class="cls-6" d="M85.8,116a53.49,53.49,0,0,0-4.08,14.62c-.92,7.79.64,14,4.17,16.49a9.34,9.34,0,0,0,4.27,1.53L106,116Z"/><path class="cls-4" d="M96,148.3c8.67-1.86,20.23-9.28,30.24-23.22a79.89,79.89,0,0,0,5.61-9.07H111.68Z"/><path class="cls-2" d="M138.77,73.47a17.31,17.31,0,0,0-10.34-3.08c-13.08,0-29.12,10.55-40.85,26.9-7.51,10.47-12.33,22-13.55,32.44-1.28,10.79,1.4,19.42,7.34,23.68a17.32,17.32,0,0,0,10.35,3.09c13.08,0,29.11-10.56,40.85-26.9,7.79-10.85,12.64-22.81,13.66-33.65C147.2,85.6,144.55,77.62,138.77,73.47Zm-.38,41h0a81.06,81.06,0,0,1-7.93,13.63c-12.81,17.83-28.68,25.81-38.73,25.81a14.77,14.77,0,0,1-8.82-2.59c-5.15-3.7-7.44-11.45-6.28-21.26a59.46,59.46,0,0,1,5.11-17.46c0-.1.08-.19.13-.29A81.26,81.26,0,0,1,89.7,98.81C102.5,81,118.37,73,128.43,73h.17a14.71,14.71,0,0,1,8.65,2.58C145.09,81.22,146.41,96.86,138.39,114.44Z"/><path class="cls-5" d="M124.05,78.72c-8.64,1.92-20.23,9.23-30.18,23.09a77,77,0,0,0-5.59,9.07h20.18Z"/><path class="cls-4" d="M388.65,641.41c8.67-1.85,20.23-9.27,30.24-23.22a77.55,77.55,0,0,0,5.61-9.06H404.3Z"/><path class="cls-3" d="M427,604c6.42-15,5.1-27.38-.09-31.11a9.19,9.19,0,0,0-4.31-1.44L406.79,604Z"/><path class="cls-6" d="M378.5,640.24a9.3,9.3,0,0,0,4.27,1.52l15.82-32.63H378.41C372,624.12,373.31,636.52,378.5,640.24Z"/><path class="cls-5" d="M416.66,571.83c-8.63,1.93-20.23,9.24-30.18,23.1a77.43,77.43,0,0,0-5.6,9.06h20.2Z"/><path class="cls-2" d="M366.64,622.85c-1.27,10.79,1.41,19.42,7.34,23.68a17.34,17.34,0,0,0,10.35,3.08c13.08,0,29.12-10.55,40.85-26.9,15.56-21.67,18.4-47.37,6.21-56.12A17.32,17.32,0,0,0,421,563.5c-13.08,0-29.11,10.56-40.85,26.91C372.69,600.86,367.87,612.38,366.64,622.85ZM421,566.12h.17a14.75,14.75,0,0,1,8.66,2.58c7.84,5.64,9.15,21.27,1.13,38.85h0a81,81,0,0,1-7.94,13.63C410.26,639,394.39,647,384.33,647a14.82,14.82,0,0,1-8.82-2.6c-7.85-5.63-9.16-21.26-1.14-38.85h0a81,81,0,0,1,7.94-13.63C395.12,574.1,411,566.12,421,566.12Z"/></g></g></svg> 