<svg xmlns="http://www.w3.org/2000/svg" viewBox="0 0 512.75 720"><defs><style>.cls-1{fill:#16191a;}.cls-2{fill:#fff;}.cls-3{fill:#f9e70d;}.cls-4{fill:#e00803;}</style></defs><g id="Layer_2" data-name="Layer 2"><g id="Layer_1-2" data-name="Layer 1"><rect class="cls-1" width="512.75" height="720" rx="36.79"/><path class="cls-2" d="M476,10.27H36.79A26.55,26.55,0,0,0,10.27,36.79V683.21a26.55,26.55,0,0,0,26.52,26.52H476a26.55,26.55,0,0,0,26.52-26.52V36.79A26.55,26.55,0,0,0,476,10.27ZM466.53,359.9V657.58a16.21,16.21,0,0,1-16.2,16.19H62.42a16.2,16.2,0,0,1-16.19-16.19V62.42A16.2,16.2,0,0,1,62.42,46.23H450.33a16.21,16.21,0,0,1,16.2,16.19Z"/><path class="cls-3" d="M400.94,254.56C373.36,216.19,358.77,202,320,229.91s-30.05,46.23-2.41,84.6c28.55,39.7,42,52.23,80.74,24.34S429.5,294.27,400.94,254.56Zm-17.36,63.8c-9,6.47-13.41,2.67-34.42-26.56-20.59-28.61-23.47-34.87-14.43-41.35s14-1.79,34.62,26.82C390.36,306.49,392.57,311.84,383.58,318.36Z"/><polygon class="cls-3" points="240.01 290.11 279.62 345.17 210.27 311.53 181.77 332.02 257.53 437.42 286.24 416.77 248.75 364.69 315.83 395.51 344.54 374.86 268.73 269.46 240.01 290.11"/><path class="cls-3" d="M170.93,339.83l-29.23,21,42.12,58.6c16.8,23.32,19.42,30.41,8.58,38.17s-16.69,3.08-33.49-20.24l-42.12-58.61-29.23,21,42.12,58.61C159.32,499.57,172.93,501,206.32,477s36.36-37.39,6.73-78.53Z"/><path class="cls-4" d="M433.56,113.21c-37.6-27-91.38-27.17-151.38-.46-61,27.17-120.7,78.64-168.32,145A495.84,495.84,0,0,0,56.49,361V584.38a103.8,103.8,0,0,0,22.65,22.39c37.65,27.07,91.43,27.23,151.42.46,61-27.12,120.71-78.58,168.33-144.9A497.57,497.57,0,0,0,456.26,359V135.65A102.14,102.14,0,0,0,433.56,113.21Zm-29.23,234c-16.49,11.87-29.59,17-40.84,17a36.4,36.4,0,0,1-17.15-4.37l6.52,9.09a10.19,10.19,0,0,1,1.8,7.65,10,10,0,0,1-4.11,6.68l-28.71,20.65a10.36,10.36,0,0,1-10.33,1l-31.69-14.59,14.74,20.49a10.17,10.17,0,0,1,1.8,7.66,10.07,10.07,0,0,1-4.11,6.68l-28.71,20.64a10.09,10.09,0,0,1-6,2,9,9,0,0,1-1.64-.16,10,10,0,0,1-6.68-4.11l-6.11-8.52a38.72,38.72,0,0,1,.41,10.27c-1.65,15.87-13.67,27.53-31.18,40.11C196.15,497,183.31,503,171.55,503c-16.75,0-31.29-12.38-50.19-38.63L79.24,405.78a10.26,10.26,0,0,1,2.31-14.33l29.23-21a10.29,10.29,0,0,1,14.33,2.31l42.12,58.61c3.29,4.52,13.1,18.18,16.75,19.47,0-.1.82-.41,2.41-1.54a8.84,8.84,0,0,0,2.36-2.11c0-3.29-10-17.15-13.25-21.73l-42.12-58.6a10.26,10.26,0,0,1,2.31-14.33l29.23-21a10.27,10.27,0,0,1,6.88-1.85,10.39,10.39,0,0,1,4-6l28.5-20.49a10.28,10.28,0,0,1,10.48-.93l32.82,15.92-15.87-22.08A10.26,10.26,0,0,1,234,281.79l28.72-20.65a10.26,10.26,0,0,1,14.33,2.31l7.14,9.91a31.69,31.69,0,0,1-.57-4.41c-1.33-21.63,15.51-36.68,30.36-47.36s34.47-21.88,54.55-13.72c15.05,6.12,26.86,21.37,40.73,40.68C437.2,287.44,451.94,313,404.33,347.17Z"/><path class="cls-4" d="M341.1,258.52a3.09,3.09,0,0,1-.36.26,2.28,2.28,0,0,0-.36.3c1.64,5.24,12,19.57,17.11,26.71s15.2,21.17,19.62,24.56l.46-.31c.2-.16.36-.26.46-.36-1.8-5.24-12-19.37-17-26.4C355.84,276.14,345.52,261.75,341.1,258.52Z"/><path class="cls-1" d="M450.33,56.5H62.42a5.92,5.92,0,0,0-5.92,5.92V335.31a514.33,514.33,0,0,1,49-83.62C154.17,183.93,215.42,131.25,278,103.37c63.49-28.28,120.87-27.76,161.6,1.48a113.86,113.86,0,0,1,16.66,14.83V62.42A5.92,5.92,0,0,0,450.33,56.5Z"/><path class="cls-1" d="M234.76,616.63c-31.18,13.89-60.89,20.84-87.88,20.84-28,0-53-7.45-73.71-22.34a113.21,113.21,0,0,1-16.67-14.8v57.25a5.92,5.92,0,0,0,5.92,5.92H450.33a5.92,5.92,0,0,0,5.92-5.92V384.72a513.55,513.55,0,0,1-49,83.62C358.58,536.09,297.33,588.76,234.76,616.63Z"/></g></g></svg>