<svg xmlns="http://www.w3.org/2000/svg" viewBox="0 0 512.76 720"><defs><style>.cls-1{fill:#16191a;}.cls-2{fill:#e00803;}.cls-3{fill:#fff;}</style></defs><g id="Layer_2" data-name="Layer 2"><g id="Layer_1-2" data-name="Layer 1"><rect class="cls-1" width="512.76" height="720" rx="36.79"/><path class="cls-2" d="M456.28,62.41v57.28a111.44,111.44,0,0,0-16.69-14.84C398.84,75.63,341.47,75.1,278,103.35c-62.56,27.9-123.84,80.59-172.44,148.34A512.54,512.54,0,0,0,56.5,335.31V62.41a6,6,0,0,1,5.91-5.91h387.9A6,6,0,0,1,456.28,62.41Z"/><path class="cls-2" d="M302.44,470.61V216.71H246.25s-15.31,51.21-46.59,51.21v56.51c29.17,0,46.23-22.4,46.23-22.4V470.61Z"/><path class="cls-2" d="M456.28,384.72V657.56a5.92,5.92,0,0,1-6,5.91H62.41a5.9,5.9,0,0,1-5.91-5.91V600.32a112.85,112.85,0,0,0,16.66,14.84c20.75,14.84,45.75,22.28,73.75,22.28,27,0,56.65-6.94,87.84-20.81,62.59-27.88,123.84-80.53,172.47-148.28A515.7,515.7,0,0,0,456.28,384.72Z"/><path class="cls-3" d="M476,10.27H36.79A26.55,26.55,0,0,0,10.27,36.79V683.21a26.55,26.55,0,0,0,26.52,26.52H476a26.55,26.55,0,0,0,26.52-26.52V36.79A26.55,26.55,0,0,0,476,10.27ZM466.53,359.9V657.58a16.21,16.21,0,0,1-16.2,16.19H62.42a16.2,16.2,0,0,1-16.19-16.19V62.42A16.2,16.2,0,0,1,62.42,46.23H450.33a16.21,16.21,0,0,1,16.2,16.19Z"/><path class="cls-3" d="M433.57,113.16C396,86.2,342.19,86,282.2,112.75c-61,27.17-120.71,78.64-168.32,145A496.67,496.67,0,0,0,56.5,361V584.38a104.11,104.11,0,0,0,22.66,22.4c37.65,27,91.42,27.22,151.42.46,60.92-27.12,120.71-78.59,168.27-144.9a498.12,498.12,0,0,0,57.43-103.29V135.61A107.16,107.16,0,0,0,433.57,113.16ZM312.71,470.61a10.3,10.3,0,0,1-10.27,10.27H245.89a10.31,10.31,0,0,1-10.28-10.27V324.27a68.26,68.26,0,0,1-36,10.43,10.31,10.31,0,0,1-10.28-10.27V267.92a10.31,10.31,0,0,1,10.28-10.27c22.7,0,36.62-43.45,36.72-43.86a10.24,10.24,0,0,1,9.86-7.35h56.2a10.3,10.3,0,0,1,10.27,10.27Z"/><path class="cls-3" d="M83.47,96.73v49.1H99.91v-74H83.57s-4.47,15-13.56,15v16.44C78.49,103.25,83.47,96.73,83.47,96.73Z"/><path class="cls-3" d="M429.31,623.27V574.16H412.82v74h16.39s4.41-14.9,13.56-14.9V616.74A18,18,0,0,0,429.31,623.27Z"/></g></g></svg>