<svg xmlns="http://www.w3.org/2000/svg" viewBox="0 0 512.75 720"><defs><style>.cls-1{fill:#16191a;}.cls-2{fill:#fff;}.cls-3{fill:#32aace;}</style></defs><g id="Layer_2" data-name="Layer 2"><g id="Layer_1-2" data-name="Layer 1"><rect class="cls-1" width="512.75" height="720" rx="36.79"/><path class="cls-2" d="M433.61,113.18c-37.65-27-91.43-27.17-151.43-.41-61,27.12-120.7,78.59-168.32,144.9A496.26,496.26,0,0,0,56.49,361V584.4a104.07,104.07,0,0,0,22.65,22.4c37.65,27,91.43,27.17,151.42.46,61-27.17,120.71-78.64,168.32-144.9A496.76,496.76,0,0,0,456.26,359V135.63A104.37,104.37,0,0,0,433.61,113.18Zm-17.42,95.08L328.87,425a5.07,5.07,0,0,1-4.67,3.18l-43.61.46L237.75,538.12a5.11,5.11,0,0,1-4.78,3.29H115.09a5.21,5.21,0,0,1-4.26-2.21L97.12,519.37v0c-.06,0-.06,0-.06-.05a4.83,4.83,0,0,1-.72-1.64c0-.11,0-.21,0-.31a5.44,5.44,0,0,1,0-1.8v0a3.52,3.52,0,0,1,.31-1L188,298a5.12,5.12,0,0,1,4.73-3.18h41.7L280,181.8a5.16,5.16,0,0,1,4.78-3.18H400.42a4.57,4.57,0,0,1,1.49.26,1.43,1.43,0,0,0,.36.1,4.52,4.52,0,0,1,1.39.82s.1,0,.15.1a8.2,8.2,0,0,1,.88,1,1.84,1.84,0,0,1,.2.46l.16.16,11,22.6A4.89,4.89,0,0,1,416.19,208.26Z"/><path class="cls-2" d="M476,10.3H36.81A26.54,26.54,0,0,0,10.26,36.8V683.23a26.58,26.58,0,0,0,26.55,26.5H476a26.57,26.57,0,0,0,26.51-26.5V36.8A26.53,26.53,0,0,0,476,10.3Zm-9.45,349.59V657.6a16.18,16.18,0,0,1-16.18,16.18H62.44A16.23,16.23,0,0,1,46.21,657.6V62.43A16.22,16.22,0,0,1,62.44,46.25H450.35a16.17,16.17,0,0,1,16.18,16.18Z"/><path class="cls-3" d="M456.27,62.44v57.25a114.16,114.16,0,0,0-16.69-14.84c-40.69-29.22-98.13-29.72-161.6-1.47-62.56,27.87-123.81,80.53-172.43,148.34a508.45,508.45,0,0,0-49.07,83.63V62.44a5.94,5.94,0,0,1,6-5.91H450.36A5.93,5.93,0,0,1,456.27,62.44Z"/><polygon class="cls-3" points="109.08 511.31 214.64 511.31 298.57 305.08 196.15 305.08 109.08 511.31"/><path class="cls-3" d="M271.7,398.36h34.37l86.65-209.47H288.19L245.51,294.81h60.71a5.15,5.15,0,0,1,4.26,2.31,5.09,5.09,0,0,1,.52,4.77Z"/><path class="cls-3" d="M456.27,384.69V657.6a5.94,5.94,0,0,1-5.91,5.9H62.45a6,6,0,0,1-6-5.9V600.31a111.73,111.73,0,0,0,16.69,14.82C93.89,630,119,637.47,146.89,637.47c27,0,56.72-6.94,87.88-20.81,62.56-27.91,123.78-80.6,172.43-148.35A509.31,509.31,0,0,0,456.27,384.69Z"/><path class="cls-2" d="M142.88,88.42c0-11.09-4.83-16.54-16.49-16.54-10.12,0-16,6.37-16,17.52h12.94c0-2.88.77-6.17,3-6.17,2.42,0,3.19,1.19,3.19,4.22,0,14-19.57,13.35-19.57,39.91h31.48V116.88H125.57C125.57,107.53,142.88,101.73,142.88,88.42Z"/><polygon class="cls-2" points="94.29 85.55 85.25 85.55 85.25 96.38 74.46 96.38 74.46 105.42 85.25 105.42 85.25 116.26 94.29 116.26 94.29 105.42 105.18 105.42 105.18 96.38 94.29 96.38 94.29 85.55"/><polygon class="cls-2" points="425.7 614.6 425.7 603.71 416.6 603.71 416.6 614.6 405.77 614.6 405.77 623.64 416.6 623.64 416.6 634.43 425.7 634.43 425.7 623.64 436.48 623.64 436.48 614.6 425.7 614.6"/><path class="cls-2" d="M400.89,592.62H369.45V603.1h15.92c0,9.35-17.31,15.2-17.31,28.45,0,11.1,4.83,16.54,16.49,16.54,10.07,0,16-6.31,16-17.51h-13c0,2.87-.72,6.21-3,6.21-2.41,0-3.18-1.23-3.18-4.26C381.37,618.61,400.89,619.18,400.89,592.62Z"/></g></g></svg> 