<svg xmlns="http://www.w3.org/2000/svg" viewBox="0 0 512.75 720"><defs><style>.cls-1{fill:#16191a;}.cls-2{fill:#32aace;}.cls-3{fill:#fff;}</style></defs><g id="Layer_2" data-name="Layer 2"><g id="Layer_1-2" data-name="Layer 1"><path class="cls-1" d="M476,0H36.79A36.83,36.83,0,0,0,0,36.79V683.21A36.83,36.83,0,0,0,36.79,720H476a36.83,36.83,0,0,0,36.79-36.79V36.79A36.83,36.83,0,0,0,476,0Z"/><path class="cls-2" d="M395,631.51c7.61,0,15.33-3.94,20.65-10.53A27.51,27.51,0,0,0,422,602.19a20.86,20.86,0,0,0-.34-2.24L388,630.16A20.06,20.06,0,0,0,395,631.51Z"/><path class="cls-2" d="M450.33,56.5H62.42a5.92,5.92,0,0,0-5.92,5.92V335.31a514.27,514.27,0,0,1,49-83.62C154.16,183.93,215.41,131.25,278,103.37c63.48-28.27,120.87-27.76,161.6,1.48a115,115,0,0,1,16.66,14.83V62.42A5.92,5.92,0,0,0,450.33,56.5ZM146.12,138.3c-9.55,11.84-23.32,18.12-36.68,18.12A38.89,38.89,0,0,1,70.25,121,48.09,48.09,0,0,1,80.93,86c15.91-19.7,43.46-24,61.44-9.6a39.55,39.55,0,0,1,14.44,26.88A48.1,48.1,0,0,1,146.12,138.3Z"/><path class="cls-2" d="M102.26,134.47a20.07,20.07,0,0,0,7,1.34c7.6,0,15.32-3.93,20.65-10.52a27.54,27.54,0,0,0,6.37-18.79,20.12,20.12,0,0,0-.34-2.24Z"/><path class="cls-2" d="M117.78,88.5c-7.61,0-15.33,3.93-20.65,10.52a27.58,27.58,0,0,0-6.3,19.5l33.06-29A20.22,20.22,0,0,0,117.78,88.5Z"/><path class="cls-2" d="M234.76,616.63c-31.18,13.9-60.89,20.84-87.88,20.84-28,0-53-7.45-73.72-22.34a112.5,112.5,0,0,1-16.66-14.8v57.25a5.92,5.92,0,0,0,5.92,5.92H450.33a5.92,5.92,0,0,0,5.92-5.92V384.72a513.3,513.3,0,0,1-49,83.62C358.58,536.09,297.33,588.76,234.76,616.63ZM442.5,599a48.08,48.08,0,0,1-10.68,35c-9.56,11.84-23.33,18.12-36.69,18.12a38.89,38.89,0,0,1-39.19-35.4,48.06,48.06,0,0,1,10.69-35c15.89-19.71,43.46-24,61.43-9.61A39.53,39.53,0,0,1,442.5,599Z"/><path class="cls-2" d="M382.82,594.71a27.64,27.64,0,0,0-6.3,19.51l33.06-29a20.17,20.17,0,0,0-6.11-1C395.86,584.19,388.14,588.13,382.82,594.71Z"/><path class="cls-2" d="M202.7,426.48c.64.52,1.31.93,2,1.41L327.89,317.42a60.81,60.81,0,0,0-17.83-23.9c-1.39-1.11-2.81-2.08-4.23-3L183.14,398.25A61.86,61.86,0,0,0,202.7,426.48Z"/><path class="cls-2" d="M171.22,465.47c52.55,42.12,133.49,29.06,180.44-29.11,24.09-29.83,35.65-67.61,31.75-103.66-3.42-31.5-18.29-59.26-41.88-78.17-20.81-16.68-46.07-24.7-71.91-24.7-39.41,0-80.17,18.68-108.53,53.81C137,313.48,125.44,351.26,129.34,387.3,132.76,418.8,147.63,446.56,171.22,465.47Zm21.47-156.54c19.78-24.52,48.75-39.15,77.48-39.15a75.3,75.3,0,0,1,37.17,9.62,4.53,4.53,0,0,1,.64.36,68.72,68.72,0,0,1,8.5,5.75,71.38,71.38,0,0,1,22.41,31.59l0,.09a83.67,83.67,0,0,1,4.79,23.68c1.42,24.61-7,49.55-23.64,70.2-19.8,24.52-48.76,39.16-77.49,39.16-12.17,0-30.08-2.73-46.31-15.73a72.58,72.58,0,0,1-24-36.21v0a81.65,81.65,0,0,1-3-14.67C166.55,358,175.07,330.76,192.69,308.93Z"/><path class="cls-3" d="M415.15,588.13c-.21-.17-.44-.26-.65-.42l-36.64,32.18a18,18,0,0,0,5.37,7.61l36.84-33A17.62,17.62,0,0,0,415.15,588.13Z"/><path class="cls-3" d="M97.53,131.81l36.85-33a17.76,17.76,0,0,0-4.92-6.35c-.21-.17-.44-.26-.65-.42L92.17,124.19A18,18,0,0,0,97.53,131.81Z"/><path class="cls-3" d="M87.9,143.89c15.78,12.64,40.1,8.68,54.23-8.82a42.86,42.86,0,0,0,9.57-31.22,34.46,34.46,0,0,0-12.54-23.43A34.11,34.11,0,0,0,117.61,73c-11.86,0-24.14,5.63-32.69,16.22a42.91,42.91,0,0,0-9.56,31.23A34.42,34.42,0,0,0,87.9,143.89Zm5.23-48.1c6.29-7.78,15.5-12.43,24.65-12.43a24.24,24.24,0,0,1,11.89,3.06l.19.11a22.67,22.67,0,0,1,2.81,1.89A23,23,0,0,1,139.54,98a2.51,2.51,0,0,1,.44,1.21,26.25,26.25,0,0,1,1.45,7,32.67,32.67,0,0,1-7.5,22.31c-6.3,7.79-15.51,12.44-24.65,12.44a23.64,23.64,0,0,1-14.89-5.06,23.39,23.39,0,0,1-7.71-11.63h0a26.26,26.26,0,0,1-1-4.73A32.74,32.74,0,0,1,93.13,95.79Z"/><path class="cls-3" d="M424.85,576.11a34.17,34.17,0,0,0-21.55-7.4c-11.85,0-24.13,5.63-32.68,16.23a42.86,42.86,0,0,0-9.57,31.22,34.44,34.44,0,0,0,12.54,23.42c15.77,12.65,40.1,8.68,54.24-8.82a42.9,42.9,0,0,0,9.56-31.22A34.38,34.38,0,0,0,424.85,576.11Zm-5.23,48.1c-6.29,7.78-15.5,12.43-24.65,12.43a23.66,23.66,0,0,1-14.89-5.06A23.38,23.38,0,0,1,372.37,620a.06.06,0,0,0,0,0,26.8,26.8,0,0,1-.94-4.7,32.62,32.62,0,0,1,7.41-23.73c6.28-7.78,15.49-12.43,24.64-12.43a24.22,24.22,0,0,1,11.89,3.06,1.86,1.86,0,0,1,.19.11,21.47,21.47,0,0,1,9.67,11.46,2.43,2.43,0,0,1,.45,1.22,26.17,26.17,0,0,1,1.45,7A32.61,32.61,0,0,1,419.62,624.21Z"/><path class="cls-3" d="M476,10.27H36.79A26.55,26.55,0,0,0,10.27,36.79V683.21a26.55,26.55,0,0,0,26.52,26.52H476a26.55,26.55,0,0,0,26.52-26.52V36.79A26.55,26.55,0,0,0,476,10.27ZM466.52,359.9V657.58a16.2,16.2,0,0,1-16.19,16.19H62.42a16.2,16.2,0,0,1-16.19-16.19V62.42A16.2,16.2,0,0,1,62.42,46.23H450.33a16.2,16.2,0,0,1,16.19,16.19Z"/><path class="cls-3" d="M270.17,280.05c-25.66,0-51.63,13.21-69.49,35.33-15.92,19.72-23.62,44.18-21.13,67.1.17,1.57.45,3.09.71,4.62L296.2,285.29A66.76,66.76,0,0,0,270.17,280.05Z"/><path class="cls-3" d="M433.58,113.18c-37.61-27-91.4-27.16-151.41-.42-60.94,27.14-120.71,78.61-168.29,144.93A495.42,495.42,0,0,0,56.5,361V584.39a104.52,104.52,0,0,0,22.65,22.4c37.64,27,91.42,27.2,151.43.46,60.93-27.14,120.7-78.61,168.29-144.91A495.07,495.07,0,0,0,456.25,359V135.63A105.13,105.13,0,0,0,433.58,113.18ZM359.66,442.81c-30.38,37.64-74.13,57.62-116.56,57.62-28.1,0-55.62-8.76-78.3-26.95-25.74-20.62-42-50.83-45.67-85.07-4.2-38.74,8.18-79.28,34-111.22C203.59,214.63,291,200.87,348,246.52c25.74,20.62,42,50.83,45.67,85.07C397.82,370.33,385.44,410.87,359.66,442.81Z"/><path class="cls-3" d="M331.45,328,213.8,433.5A65.86,65.86,0,0,0,242.58,440c25.66,0,51.63-13.21,69.49-35.34,15.06-18.67,22.66-41.1,21.38-63.16A74.83,74.83,0,0,0,331.45,328Z"/></g></g></svg> 