<svg xmlns="http://www.w3.org/2000/svg" viewBox="0 0 512.74 720"><defs><style>.cls-1{fill:#16191a;}.cls-2{fill:#f9e70d;}.cls-3{fill:#fff;}</style></defs><g id="Layer_2" data-name="Layer 2"><g id="Layer_1-2" data-name="Layer 1"><path class="cls-1" d="M476,0H36.78A36.81,36.81,0,0,0,0,36.78V683.22A36.81,36.81,0,0,0,36.78,720H476a36.81,36.81,0,0,0,36.78-36.78V36.78A36.81,36.81,0,0,0,476,0ZM87.07,108.54H82.29V96.41h4.78c4.11,0,6.06-4,6.06-8.52,0-4.73-1.75-7.76-6.83-7.76-5.71,0-9,7-9,7L66.06,78.9s5.44-13.41,20.8-13.41c16.54,0,22.24,10.17,22.24,20.91,0,9.81-4.42,14.28-6.68,16.08,2.16,1.64,6.68,6,6.68,15.82,0,10.78-5.7,21.16-22.24,21.16-15.36,0-20.8-13.41-20.8-13.41l11.25-8.32s3.28,7,9,7c5.08,0,6.83-3,6.83-7.76C93.13,112.44,91.18,108.54,87.07,108.54Zm336,504.93h4.78v12.12h-4.78c-4.11,0-6.06,3.9-6.06,8.53s1.75,7.7,6.83,7.7c5.65,0,9-7,9-7l11.25,8.32s-5.5,13.41-20.85,13.41c-16.49,0-22.19-10.17-22.19-21,0-9.76,4.41-14.28,6.67-16-2.15-1.65-6.67-6-6.67-15.87,0-10.74,5.7-21.12,22.19-21.12,15.35,0,20.85,13.41,20.85,13.41l-11.25,8.32s-3.34-7-9-7c-5.08,0-6.83,3-6.83,7.71S418.94,613.47,423.05,613.47Z"/><path class="cls-2" d="M234.74,616.64c-31.19,13.88-60.88,20.82-87.88,20.82-27.93,0-53-7.44-73.72-22.28a115.12,115.12,0,0,1-16.62-14.82v57.22a5.86,5.86,0,0,0,5.9,5.91H450.34a5.89,5.89,0,0,0,5.91-5.91V384.73a519.1,519.1,0,0,1-49,83.63C358.59,536.11,297.31,588.77,234.74,616.64Z"/><path class="cls-2" d="M251.75,424.75c-20.65,0-32.72-25.63-32.72-25.63l-40.89,30.25s19.93,48.7,75.71,48.7c60.1,0,80.75-37.71,80.75-76.8,0-35.95-16.34-51.57-24.19-57.63,8.16-6.37,24.19-22.76,24.19-58.3,0-39.14-20.65-76.13-80.75-76.13-55.78,0-75.71,48.75-75.71,48.75L219,288.16s12.07-25.58,32.72-25.58c18.49,0,24.86,11,24.86,28.1,0,16.7-7.09,30.92-22,30.92H237.16v44.08h17.41c14.95,0,22,14.22,22,31C276.61,413.7,270.24,424.75,251.75,424.75Z"/><path class="cls-2" d="M450.34,56.5H62.42a5.88,5.88,0,0,0-5.9,5.91V335.32a512.64,512.64,0,0,1,49-83.62C154.14,184,215.37,131.26,278,103.35c63.5-28.25,120.88-27.75,161.6,1.5a115.3,115.3,0,0,1,16.66,14.84V62.41A5.91,5.91,0,0,0,450.34,56.5Z"/><path class="cls-3" d="M433.58,113.16c-37.6-27-91.43-27.12-151.43-.41-60.92,27.17-120.71,78.64-168.27,145A494.39,494.39,0,0,0,56.5,361V584.39a102.8,102.8,0,0,0,22.66,22.4c37.6,27.07,91.38,27.22,151.42.46,60.92-27.12,120.71-78.59,168.28-144.9a494.39,494.39,0,0,0,57.38-103.3V135.61A105.77,105.77,0,0,0,433.58,113.16ZM344.87,401.27c0,54.5-34,87.07-91,87.07-61.95,0-84.29-52.81-85.21-55.07A10.32,10.32,0,0,1,172,421.1l40.88-30.25a10.27,10.27,0,0,1,15.41,3.9c.11.15,9.86,19.72,23.43,19.72,9.65,0,14.58-2.77,14.58-17.82,0-3.44-.56-20.7-11.76-20.7H237.16a10.31,10.31,0,0,1-10.28-10.27V321.6a10.31,10.31,0,0,1,10.28-10.27h17.41c11.2,0,11.76-17.21,11.76-20.65,0-15.05-4.93-17.82-14.58-17.82-13.62,0-23.38,19.52-23.43,19.72a10.32,10.32,0,0,1-15.41,3.85L172,266.23a10.32,10.32,0,0,1-3.39-12.17c.92-2.26,23.26-55.12,85.21-55.12,57,0,91,32.31,91,86.4,0,29.18-10.07,47.46-19.46,58.2C338.2,357.71,344.87,377.39,344.87,401.27Z"/><path class="cls-3" d="M476,10.27H36.78A26.54,26.54,0,0,0,10.27,36.78V683.22a26.51,26.51,0,0,0,26.51,26.51H476a26.5,26.5,0,0,0,26.5-26.51V36.78A26.53,26.53,0,0,0,476,10.27Zm-9.45,349.65V657.59a16.17,16.17,0,0,1-16.18,16.18H62.41a16.17,16.17,0,0,1-16.18-16.18V62.41A16.17,16.17,0,0,1,62.41,46.23H450.33a16.17,16.17,0,0,1,16.18,16.18Z"/><path class="cls-3" d="M86.3,124.77c-5.71,0-9-7-9-7l-11.25,8.32s5.44,13.41,20.8,13.41c16.54,0,22.24-10.38,22.24-21.16,0-9.87-4.52-14.18-6.68-15.82,2.26-1.8,6.68-6.27,6.68-16.08,0-10.74-5.7-20.91-22.24-20.91-15.36,0-20.8,13.41-20.8,13.41l11.25,8.27s3.28-7,9-7c5.08,0,6.83,3,6.83,7.76,0,4.57-1.95,8.52-6.06,8.52H82.29v12.13h4.78c4.11,0,6.06,3.9,6.06,8.47C93.13,121.74,91.38,124.77,86.3,124.77Z"/><path class="cls-3" d="M423.82,597.23c5.65,0,9,7,9,7L444.06,596s-5.5-13.41-20.85-13.41c-16.49,0-22.19,10.38-22.19,21.12,0,9.91,4.52,14.22,6.67,15.87-2.26,1.74-6.67,6.26-6.67,16,0,10.79,5.7,21,22.19,21,15.35,0,20.85-13.41,20.85-13.41l-11.25-8.32s-3.34,7-9,7c-5.08,0-6.83-3-6.83-7.7s1.95-8.53,6.06-8.53h4.78V613.47h-4.78c-4.11,0-6.06-3.91-6.06-8.53S418.74,597.23,423.82,597.23Z"/></g></g></svg> 