<svg xmlns="http://www.w3.org/2000/svg" viewBox="0 0 512.75 720"><defs><style>.cls-1{fill:#16191a;}.cls-2{fill:#fff;}.cls-3{fill:#2baa07;}</style></defs><g id="Layer_2" data-name="Layer 2"><g id="Layer_1-2" data-name="Layer 1"><rect class="cls-1" width="512.75" height="720" rx="36.79"/><path class="cls-2" d="M433.58,113.18c-37.61-27-91.4-27.16-151.4-.42-60.94,27.14-120.71,78.61-168.3,144.93A496.08,496.08,0,0,0,56.5,361V584.39a104.52,104.52,0,0,0,22.65,22.4c37.64,27,91.42,27.2,151.43.46,60.93-27.14,120.7-78.61,168.29-144.91A494.66,494.66,0,0,0,456.25,359V135.63A105.13,105.13,0,0,0,433.58,113.18Zm-41.9,80.56L363,332.58a5.16,5.16,0,0,1-3.73,3.93,5.27,5.27,0,0,1-1.3.17,5.13,5.13,0,0,1-3.88-1.77l-26.18-30.12-17.45,15,9.19,31.92a74.21,74.21,0,0,1-23,76.87L239.2,477.77l29.16,33.54a5.15,5.15,0,0,1-3.42,8.49L126.58,532.42a3.62,3.62,0,0,1-.47,0,5.13,5.13,0,0,1-5-6.17l28.65-138.85a5.13,5.13,0,0,1,8.9-2.33l26.19,30.12,17.45-15-9.2-31.92a74.23,74.23,0,0,1,23-76.87l57.44-49.14L244.4,208.69a5.14,5.14,0,0,1,3.41-8.49l138.37-12.62a5.15,5.15,0,0,1,5.5,6.16Z"/><path class="cls-2" d="M476,10.27H36.79A26.55,26.55,0,0,0,10.27,36.79V683.21a26.55,26.55,0,0,0,26.52,26.52H476a26.55,26.55,0,0,0,26.52-26.52V36.79A26.55,26.55,0,0,0,476,10.27ZM466.53,359.9V657.58a16.21,16.21,0,0,1-16.2,16.19H62.42a16.2,16.2,0,0,1-16.19-16.19V62.42A16.2,16.2,0,0,1,62.42,46.23H450.33a16.21,16.21,0,0,1,16.2,16.19Z"/><path class="cls-2" d="M406.24,587.63,377.94,612l9.8,11.27,15-12.86a16.5,16.5,0,0,0,5.13-17.1Z"/><polygon class="cls-2" points="361.45 637.87 391.24 635.15 367.61 607.98 361.45 637.87"/><polygon class="cls-2" points="420.84 581.04 427 551.16 397.22 553.87 420.84 581.04"/><path class="cls-2" d="M385.69,578.58a16.53,16.53,0,0,0-5.12,17.11l1.65,5.71,28.3-24.4-9.8-11.27Z"/><polygon class="cls-2" points="91.92 138.96 85.75 168.85 115.54 166.13 91.92 138.96"/><path class="cls-2" d="M127.07,141.42a16.52,16.52,0,0,0,5.12-17.1l-1.65-5.72L102.24,143l9.8,11.27Z"/><path class="cls-2" d="M106.52,132.38,134.82,108,125,96.7l-15,12.86a16.52,16.52,0,0,0-5.12,17.1Z"/><polygon class="cls-2" points="151.31 82.14 121.52 84.85 145.15 112.02 151.31 82.14"/><path class="cls-3" d="M234.76,616.63c-31.18,13.9-60.89,20.84-87.88,20.84-28,0-53-7.45-73.71-22.34a112.07,112.07,0,0,1-16.67-14.8v57.25a5.92,5.92,0,0,0,5.92,5.92H450.33a5.92,5.92,0,0,0,5.92-5.92V384.72a513.42,513.42,0,0,1-49,83.62C358.58,536.09,297.33,588.76,234.76,616.63Zm197.38-70.06a2.56,2.56,0,0,1,.59,2.23l-7.91,38.36a2.58,2.58,0,0,1-1.86,2,2.5,2.5,0,0,1-.66.09,2.55,2.55,0,0,1-1.93-.89l-6.48-7.45-3.4,2.93,2.33,8.11a21.67,21.67,0,0,1-6.72,22.43l-15,12.83,7.29,8.39a2.56,2.56,0,0,1-1.7,4.24l-38.23,3.49h-.24a2.57,2.57,0,0,1-2.51-3.09l7.92-38.36a2.56,2.56,0,0,1,4.45-1.17l6.48,7.46,3.4-2.93-2.34-8.11a21.66,21.66,0,0,1,6.72-22.43l15-12.83-7.3-8.39a2.57,2.57,0,0,1-.45-2.65,2.6,2.6,0,0,1,2.16-1.6L430,545.73A2.67,2.67,0,0,1,432.14,546.57Z"/><path class="cls-3" d="M450.33,56.5H62.42a5.92,5.92,0,0,0-5.92,5.92V335.31a514.33,514.33,0,0,1,49-83.62C154.17,183.93,215.42,131.25,278,103.37c63.49-28.28,120.87-27.76,161.6,1.48a114.44,114.44,0,0,1,16.66,14.83V62.42A5.92,5.92,0,0,0,450.33,56.5ZM149.12,118.14a2.55,2.55,0,0,1-1.86,2,2.37,2.37,0,0,1-.65.09,2.59,2.59,0,0,1-1.94-.89l-6.48-7.46-3.4,2.93,2.33,8.11a21.66,21.66,0,0,1-6.72,22.44l-15,12.82,7.29,8.39a2.57,2.57,0,0,1-1.7,4.25l-38.23,3.49h-.24A2.57,2.57,0,0,1,80,171.2l7.92-38.36a2.56,2.56,0,0,1,4.45-1.17l6.48,7.46,3.4-2.93-2.34-8.11a21.68,21.68,0,0,1,6.72-22.44l15-12.82-7.3-8.39a2.58,2.58,0,0,1,1.7-4.25l38.24-3.48a2.64,2.64,0,0,1,2.15.84,2.56,2.56,0,0,1,.59,2.23Z"/><path class="cls-3" d="M232.46,470,290,420.82a63.92,63.92,0,0,0,19.84-66.21l-7.76-26.92L191.55,423Z"/><polygon class="cls-3" points="132.54 521.56 254.02 510.48 157.69 399.67 132.54 521.56"/><path class="cls-3" d="M203,365.39l7.75,26.92L321.2,297,280.3,250l-57.52,49.2A63.91,63.91,0,0,0,203,365.39Z"/><polygon class="cls-3" points="380.21 198.44 258.74 209.52 355.06 320.34 380.21 198.44"/></g></g></svg> 