<svg xmlns="http://www.w3.org/2000/svg" viewBox="0 0 512.81 720"><defs><style>.cls-1{fill:#16191a;}.cls-2{fill:#f9e70d;}.cls-3{fill:#fff;}</style></defs><g id="Layer_2" data-name="Layer 2"><g id="Layer_1-2" data-name="Layer 1"><path class="cls-1" d="M512.81,36.78V683.22A36.87,36.87,0,0,1,476,720H36.78A36.82,36.82,0,0,1,0,683.22V36.78A36.82,36.82,0,0,1,36.78,0H476A36.87,36.87,0,0,1,512.81,36.78Z"/><path class="cls-2" d="M234.73,616.66c-63.43,28.28-120.84,27.71-161.59-1.5a116.72,116.72,0,0,1-16.62-14.79v57.22a5.9,5.9,0,0,0,5.9,5.91H450.33a5.94,5.94,0,0,0,6-5.91V384.69a515.6,515.6,0,0,1-49.07,83.62C358.58,536.09,297.36,588.75,234.73,616.66Z"/><path class="cls-2" d="M450.33,56.5H62.42a5.92,5.92,0,0,0-5.9,5.91v272.9a507.48,507.48,0,0,1,49-83.62C154.2,183.94,215.42,131.25,278,103.41c31.19-13.94,60.94-20.88,87.91-20.88,27.94,0,53,7.47,73.69,22.34a114.23,114.23,0,0,1,16.72,14.82V62.41A6,6,0,0,0,450.33,56.5Z"/><path class="cls-3" d="M476,10.28H36.78a26.56,26.56,0,0,0-26.5,26.5V683.22a26.54,26.54,0,0,0,26.5,26.5H476a26.57,26.57,0,0,0,26.56-26.5V36.78A26.59,26.59,0,0,0,476,10.28Zm-9.41,349.59V657.59a16.22,16.22,0,0,1-16.22,16.19H62.41a16.17,16.17,0,0,1-16.16-16.19V62.41A16.2,16.2,0,0,1,62.41,46.22H450.34a16.26,16.26,0,0,1,16.22,16.19Z"/><path class="cls-3" d="M433.66,113.25C396,86.19,342.22,86,282.22,112.81c-60.91,27.1-120.72,78.57-168.28,144.88A496.89,496.89,0,0,0,56.53,361V584.38a103.26,103.26,0,0,0,22.69,22.46c37.59,27,91.37,27.16,151.37.47,61-27.19,120.72-78.65,168.35-145a497,497,0,0,0,57.37-103.28V135.66A104.8,104.8,0,0,0,433.66,113.25Zm-113,385.5a10.89,10.89,0,0,1-10.94,10.94H203.06a10.93,10.93,0,0,1-10.93-10.94V475.34a10.93,10.93,0,0,1,10.93-11H309.75a11,11,0,0,1,10.94,10.94Zm13-161.69c0,64.81-6,123-78,123-33.57,0-73.6-13.81-73.6-79.53v-1A11,11,0,0,1,193,368.56h20.34c-22.31-11.22-34.22-35.18-34.22-70.22v-1c0-72.78,44.63-83.65,71.22-83.65,77.07,0,83.35,55.4,83.35,122.37Zm-80.38-59.4c-3.56,0-7.62,0-7.69,18.81.1,15,2.63,15,7.69,15a25.81,25.81,0,0,0,8.38-1.75c-.32-11.5-1.13-23.5-3.44-29.34C257.28,278,257.16,277.66,253.31,277.66Zm1.47,101.84c0,10.66,1.22,14.94,1.88,16.5a3.35,3.35,0,0,0,.62-.13c1-1,2.85-5.37,3.91-21.5a70.35,70.35,0,0,1-7.19,1.1A10.75,10.75,0,0,1,254.78,379.5Z"/><path class="cls-2" d="M255.67,447.39c57.63,0,67.09-39.31,67.09-112,0-.27,0-.51,0-.78v-.24c0-75.07-10.63-111.43-72.41-111.43-49.94,0-60.29,38.13-60.29,72.71,0,.2,0,.39,0,.58s0,.3,0,.44c0,38.13,14.19,66.5,57.33,66.5a63.64,63.64,0,0,0,25.39-5.6c-.93,37.82-4.53,47.72-17.11,47.72-9.46,0-11.83-11.52-11.83-27.48H193c0,.35,0,.68,0,1h0C193,422.27,210.75,447.39,255.67,447.39ZM253.3,320.76c-14.89,0-18.51-9.27-18.6-26,.06-17.2,3.38-29.7,18.6-29.7,14.95,0,18.85,9,19.5,50.11C268.65,317.22,260.68,320.76,253.3,320.76Z"/><polygon class="cls-2" points="309.76 473.63 203.06 473.63 203.06 496.05 203.06 496.05 203.06 497.07 309.76 497.07 309.76 474.65 309.76 474.65 309.76 473.63"/><path class="cls-3" d="M106,97.29c0-21.41-3-31.78-20.65-31.78-14.24,0-17.19,10.88-17.19,20.74v.29c0,10.87,4,19,16.35,19a18,18,0,0,0,7.24-1.6c-.27,10.79-1.29,13.61-4.88,13.61-2.7,0-3.37-3.29-3.37-7.84H69c0,.1,0,.2,0,.29h0c0,12.39,5.06,19.56,17.87,19.56,16.43,0,19.13-11.21,19.13-31.94v-.29Zm-19.8-3.88c-4.25,0-5.28-2.64-5.31-7.42s1-8.47,5.31-8.47,5.37,2.58,5.55,14.29A13.57,13.57,0,0,1,86.16,93.41Z"/><polygon class="cls-3" points="102.25 132.7 71.83 132.7 71.83 139.09 71.83 139.09 71.83 139.38 102.25 139.38 102.25 132.99 102.25 132.99 102.25 132.7"/><path class="cls-3" d="M444.69,633.59v-.13c0-10.87-4.05-19-16.35-19a18,18,0,0,0-7.24,1.6c.27-10.79,1.29-13.61,4.88-13.61,2.7,0,3.37,3.29,3.37,7.84h14.5c0-.1,0-.2,0-.3h0c0-12.38-5.06-19.55-17.87-19.55-16.43,0-19.13,11.21-19.13,31.94v.29c0,21.41,3,31.78,20.65,31.78,14.24,0,17.19-10.88,17.19-20.74Zm-18,8.89c-4.27,0-5.38-2.58-5.56-14.29a13.57,13.57,0,0,1,5.56-1.6c4.24,0,5.28,2.64,5.3,7.42S431,642.48,426.66,642.48Z"/><polygon class="cls-3" points="410.56 587.3 440.98 587.3 440.98 580.91 440.98 580.91 440.98 580.62 410.56 580.62 410.56 587.01 410.56 587.01 410.56 587.3"/></g></g></svg> 