<svg xmlns="http://www.w3.org/2000/svg" viewBox="0 0 512.78 720"><defs><style>.cls-1{fill:#16191a;}.cls-2{fill:#32aace;}.cls-3{fill:#fff;}</style></defs><g id="Layer_2" data-name="Layer 2"><g id="Layer_1-2" data-name="Layer 1"><path class="cls-1" d="M476,0H36.78A36.82,36.82,0,0,0,0,36.78V683.22A36.82,36.82,0,0,0,36.78,720H476a36.85,36.85,0,0,0,36.81-36.78V36.78A36.85,36.85,0,0,0,476,0Z"/><path class="cls-2" d="M450.31,56.5H62.41a6,6,0,0,0-5.91,5.91v272.9a512.12,512.12,0,0,1,49.06-83.62C154.16,183.94,215.44,131.25,278,103.41c63.47-28.32,120.84-27.82,161.59,1.43a113.77,113.77,0,0,1,16.69,14.85V62.41A5.94,5.94,0,0,0,450.31,56.5Z"/><path class="cls-2" d="M234.75,616.66c-31.19,13.87-60.88,20.84-87.84,20.84-28,0-53-7.44-73.75-22.34A111.07,111.07,0,0,1,56.5,600.37v57.22a5.93,5.93,0,0,0,5.91,5.91h387.9a5.92,5.92,0,0,0,6-5.91V384.72a513,513,0,0,1-49.06,83.62C358.59,536.09,297.34,588.75,234.75,616.66Z"/><path class="cls-3" d="M88.67,87.81a18.3,18.3,0,0,0-7.25,1.6c.28-11,1.25-13.91,4.88-13.91,2.75,0,3.4,3.28,3.4,7.84h14.6c0-12.4-5.1-19.59-18-19.59-16.47,0-19.19,11.25-19.19,32,0,21.47,3.06,31.91,20.75,31.91,14.28,0,17.25-10.94,17.25-20.82C105.11,95.94,101.05,87.81,88.67,87.81ZM87,115.94c-4.31,0-5.4-2.63-5.56-14.66A13.13,13.13,0,0,1,87,99.69c4.32,0,5.35,2.68,5.35,7.59S91.39,115.94,87,115.94Z"/><path class="cls-3" d="M425,592.28c-14.34,0-17.28,10.91-17.28,20.81,0,10.91,4.07,19.07,16.41,19.07a18,18,0,0,0,7.28-1.66c-.25,11.09-1.28,14-4.94,14-2.72,0-3.37-3.28-3.37-7.85H408.55c0,12.44,5.06,19.63,17.9,19.63,16.5,0,19.22-11.25,19.22-32.06C445.67,602.66,442.64,592.28,425,592.28Zm.82,28c-4.32,0-5.35-2.72-5.35-7.59,0-5,.91-8.63,5.35-8.63s5.37,2.63,5.59,14.63A14.37,14.37,0,0,1,425.8,620.28Z"/><path class="cls-3" d="M476,10.28H36.78a26.56,26.56,0,0,0-26.5,26.5V683.22a26.54,26.54,0,0,0,26.5,26.5H476a26.55,26.55,0,0,0,26.53-26.5V36.78A26.56,26.56,0,0,0,476,10.28Zm-9.41,349.63V657.59a16.22,16.22,0,0,1-16.25,16.16H62.41a16.17,16.17,0,0,1-16.19-16.16V62.41A16.23,16.23,0,0,1,62.41,46.22h387.9a16.28,16.28,0,0,1,16.25,16.19Z"/><path class="cls-3" d="M264,316a87.15,87.15,0,0,0-15.81,2.25c1.75-32.31,6-32.31,8.93-32.34,0,0,3.47,2.31,3.47,22.18A10.85,10.85,0,0,0,264,316Z"/><path class="cls-3" d="M271.59,408.75c0,25.31-6.09,25.31-11.43,25.31-6.35,0-11.35,0-12.41-43.56a36.37,36.37,0,0,1,12.41-2.81C267,387.69,271.59,387.69,271.59,408.75Z"/><path class="cls-3" d="M433.59,113.22c-37.62-27-91.4-27.19-151.37-.47-61,27.16-120.72,78.63-168.35,144.94A497.15,497.15,0,0,0,56.5,361V584.37a103.06,103.06,0,0,0,22.66,22.41c37.65,27.06,91.43,27.22,151.43.47,60.91-27.13,120.69-78.59,168.25-144.91a495.45,495.45,0,0,0,57.44-103.28V135.66A104.26,104.26,0,0,0,433.59,113.22ZM263.69,505.34c-82.44,0-98.07-50.93-98.07-145,0-76.78,7-145.71,91.66-145.71,57.28,0,86.34,31.46,86.34,93.49a10.94,10.94,0,0,1-10.93,10.94h-39.5c35.43,9.22,54,39.16,54,87.88C347.16,492.56,294.84,505.34,263.69,505.34Z"/><path class="cls-2" d="M263.68,494.43c60.1,0,72.53-45.87,72.53-87.48,0-45.87-17-80-69-80a76.59,76.59,0,0,0-30.56,6.78c1-46.59,5.34-58.66,20.59-58.66,11.41,0,14.23,13.87,14.23,33.08h61.18c0-52.29-21.37-82.55-75.41-82.55-69.34,0-80.69,47.31-80.69,134.79C176.57,450.71,189.36,494.43,263.68,494.43Zm-3.54-117.68c18.13,0,22.4,11.35,22.4,32,0,20.95-3.91,36.26-22.4,36.26-18.13,0-22.81-11-23.47-61.54C241.65,381,251.25,376.75,260.14,376.75Z"/></g></g></svg> 