<?xml version="1.0" encoding="UTF-8"?>
<svg xmlns="http://www.w3.org/2000/svg" viewBox="0 0 512.76 720"><defs><style>.cls-1{fill:#16191a;}.cls-2{fill:#fff;}.cls-3{fill:#f9e70d;}.cls-4{fill:#f9e70d;}.cls-5{fill:#f9e70d;}.cls-6{fill:#f9e70d;}</style></defs><g id="Layer_2" data-name="Layer 2"><g id="Layer_1-2" data-name="Layer 1"><rect class="cls-1" width="512.76" height="720" rx="36.79"/><path class="cls-2" d="M433.58,113.18c-37.61-27-91.4-27.16-151.4-.42-60.94,27.14-120.71,78.61-168.3,144.93A496.08,496.08,0,0,0,56.5,361V584.39a104.52,104.52,0,0,0,22.65,22.4c37.64,27,91.42,27.2,151.43.46,60.93-27.14,120.7-78.61,168.29-144.91A494.66,494.66,0,0,0,456.25,359V135.63A105.13,105.13,0,0,0,433.58,113.18ZM421.73,277.81,354.1,440.53a5.14,5.14,0,0,1-4.74,3.17H305.59L262.67,548.92a5.14,5.14,0,0,1-4.75,3.2H162.16a5.13,5.13,0,0,1-4.79-3.28l-9.2-23.72s0,0,0,0a4.9,4.9,0,0,1-.3-1.78c0-.12,0-.24,0-.36a4.82,4.82,0,0,1,.3-1.49l15.45-41.39H106.3a5.14,5.14,0,0,1-4.69-3l-10.53-23.5c0-.05,0-.11,0-.16a5.5,5.5,0,0,1-.39-1.73c0-.11,0-.22,0-.33a5.39,5.39,0,0,1,.25-1.47c0-.11.07-.23.11-.34s0-.13.06-.18l78-172.9a5.14,5.14,0,0,1,4.68-3h37l46.08-102.48a5.12,5.12,0,0,1,4.68-3H352a5.07,5.07,0,0,1,1.5.25l.3.11a5.07,5.07,0,0,1,1.45.82l.11.08a4.8,4.8,0,0,1,.88,1,3.81,3.81,0,0,1,.23.45c0,.06.1.09.13.16l13,25.93a5.18,5.18,0,0,1,.24,4l-16.5,46.11h51a5.07,5.07,0,0,1,1.41.22,2.85,2.85,0,0,1,.31.12,5.07,5.07,0,0,1,1.32.7l.28.2a5.39,5.39,0,0,1,1,1.06c.06.09.09.2.15.3s.08.08.11.14l12.66,23.89A5.17,5.17,0,0,1,421.73,277.81Z"/><path class="cls-2" d="M476,10.3H36.82A26.55,26.55,0,0,0,10.26,36.8V683.23a26.58,26.58,0,0,0,26.56,26.5H476a26.57,26.57,0,0,0,26.51-26.5V36.8A26.53,26.53,0,0,0,476,10.3Zm-9.45,349.59V657.6a16.21,16.21,0,0,1-16.18,16.18H62.4A16.22,16.22,0,0,1,46.21,657.6V62.43A16.22,16.22,0,0,1,62.4,46.25h388a16.21,16.21,0,0,1,16.18,16.18Z"/><polygon class="cls-2" points="82.99 111.38 91.57 111.38 91.57 101.11 101.84 101.11 101.84 92.53 91.57 92.53 91.57 82.31 82.99 82.31 82.99 92.53 72.77 92.53 72.77 101.11 82.99 101.11 82.99 111.38"/><path class="cls-2" d="M123.72,121.91h11.36v-11.5h3.8V100.08h-3.8V70.86H122.29l-15.88,29.22v10.33h17.31Zm-6.57-21.83,6.57-12.79v12.79Z"/><polygon class="cls-2" points="429.76 608.59 421.18 608.59 421.18 618.92 410.9 618.92 410.9 627.5 421.18 627.5 421.18 637.72 429.76 637.72 429.76 627.5 439.98 627.5 439.98 618.92 429.76 618.92 429.76 608.59"/><path class="cls-2" d="M389,598.12H377.67v11.5h-3.8v10.27h3.8v29.23h12.79l15.87-29.23V609.62H389Zm6.63,21.77L389,632.68V619.89Z"/><path class="cls-3" d="M230.91,343.49v0l25.15-59.79H177.11L103.72,446.3h83.95Z"/><path class="cls-4" d="M280,422.44H243.4a5.14,5.14,0,0,1-4.7-7.22l28.71-64.6H239.05L195.82,453.43a5.13,5.13,0,0,1-4.74,3.14h-7.74l-23,61.56H240Z"/><path class="cls-5" d="M290.75,347.32a5.12,5.12,0,0,1-4.79,3.3h-7.3L251.3,412.17h80l65.29-155.1H325.32Z"/><path class="cls-6" d="M268.07,275.69a5.18,5.18,0,0,1,.46,4.84l-25.16,59.82h39.06l62.12-162.19H264.89L222.08,273.4h41.71A5.17,5.17,0,0,1,268.07,275.69Z"/></g></g></svg> 