<svg xmlns="http://www.w3.org/2000/svg" viewBox="0 0 512.79 720"><defs><style>.cls-1{fill:#16191a;}.cls-2{fill:#2baa07;}.cls-3{fill:#fff;}</style></defs><g id="Layer_2" data-name="Layer 2"><g id="Layer_1-2" data-name="Layer 1"><path class="cls-1" d="M476,0H36.83A36.85,36.85,0,0,0,0,36.78V683.22A36.85,36.85,0,0,0,36.83,720H476a36.81,36.81,0,0,0,36.78-36.78V36.78A36.81,36.81,0,0,0,476,0Z"/><path class="cls-2" d="M450.37,56.5h-388a6,6,0,0,0-5.91,5.91v272.9a514.28,514.28,0,0,1,49.06-83.62C154.19,183.94,215.44,131.25,278,103.35c63.47-28.25,120.91-27.75,161.59,1.5a113.13,113.13,0,0,1,16.69,14.84V62.41A5.93,5.93,0,0,0,450.37,56.5Z"/><path class="cls-2" d="M275.43,428.29c-11.36,0-15.26-15-15.26-32.72H199c0,52.65,25.22,82.49,72.89,82.49,65.44,0,82.14-30.92,82.14-91s-26.3-89.27-64-89.27c-21.31,0-33.44,10-33.44,10V273.27h90V216.71H204.33V355h52.24s0-12.48,15.67-12.48c14.59,0,19.57,12.84,19.57,44.48S290,428.29,275.43,428.29Z"/><path class="cls-2" d="M234.78,616.66c-31.16,13.87-60.91,20.78-87.87,20.78-28,0-53-7.44-73.72-22.28A113.14,113.14,0,0,1,56.5,600.31V657.6a5.92,5.92,0,0,0,5.91,5.9h388a5.9,5.9,0,0,0,5.91-5.9V384.72a511.37,511.37,0,0,1-49.06,83.63C358.59,536.1,297.37,588.75,234.78,616.66Z"/><path class="cls-3" d="M476,10.27H36.83A26.59,26.59,0,0,0,10.27,36.78V683.22a26.55,26.55,0,0,0,26.56,26.51H476a26.54,26.54,0,0,0,26.51-26.51V36.78A26.58,26.58,0,0,0,476,10.27Zm-9.45,349.65V657.59a16.21,16.21,0,0,1-16.18,16.18h-388a16.21,16.21,0,0,1-16.18-16.18V62.41A16.21,16.21,0,0,1,62.41,46.23h388a16.21,16.21,0,0,1,16.18,16.18Z"/><path class="cls-3" d="M433.58,113.16c-37.6-27-91.38-27.12-151.37-.41-61,27.17-120.71,78.64-168.33,145A496.67,496.67,0,0,0,56.5,361V584.39a103.89,103.89,0,0,0,22.66,22.4c37.65,27,91.43,27.22,151.42.46,61-27.12,120.71-78.59,168.33-144.9a498,498,0,0,0,57.38-103.3V135.61A104.65,104.65,0,0,0,433.58,113.16ZM271.88,488.34c-52.85,0-83.16-33.8-83.16-92.77A10.3,10.3,0,0,1,199,385.3h61.18a10.3,10.3,0,0,1,10.27,10.27c0,17.05,3.91,22.45,5,22.45a7.62,7.62,0,0,0,3.23-.41c2.88-2.73,2.88-23,2.88-30.57,0-34.21-6.27-34.21-9.3-34.21-5.19,0-5.34,1.8-5.39,2.57a9,9,0,0,1-2.67,7.19c-2,2.16-4.73,2.73-7.61,2.73H204.33A10.31,10.31,0,0,1,194.06,355V216.71a10.3,10.3,0,0,1,10.27-10.27H346.57a10.3,10.3,0,0,1,10.27,10.27v56.56a10.3,10.3,0,0,1-10.27,10.27H266.85v7.6A73.11,73.11,0,0,1,290,287.5c46.49,0,74.28,37.19,74.28,99.54C364.29,439.64,353.09,488.34,271.88,488.34Z"/><path class="cls-3" d="M86.91,128c-3.18,0-4.26-4.16-4.26-9.14H65.49c0,14.74,7.09,23.12,20.45,23.12,18.33,0,23-8.69,23-25.53s-7.35-25-17.93-25a15.61,15.61,0,0,0-9.4,2.78V84.55h25.22V68.68H67v38.78H81.62S81.62,104,86,104c4.06,0,5.49,3.54,5.49,12.43S91,128,86.91,128Z"/><path class="cls-3" d="M420.64,592.92c3.18,0,4.26,4.21,4.26,9.19h17.16c0-14.74-7.09-23.11-20.45-23.11-18.33,0-23,8.68-23,25.53s7.35,25,17.93,25a15.47,15.47,0,0,0,9.4-2.82v9.71H400.66v15.82h39.91V613.47H425.93s0,3.49-4.42,3.49c-4.06,0-5.5-3.6-5.5-12.43S416.53,592.92,420.64,592.92Z"/></g></g></svg> 