<svg xmlns="http://www.w3.org/2000/svg" viewBox="0 0 512.7 720"><defs><style>.cls-1{fill:#16191a;}.cls-2{fill:#2baa07;}.cls-3{fill:#fff;}</style></defs><g id="Layer_2" data-name="Layer 2"><g id="Layer_1-2" data-name="Layer 1"><path class="cls-1" d="M475.93,0H36.78A36.85,36.85,0,0,0,0,36.83V683.17A36.85,36.85,0,0,0,36.78,720H475.93a36.85,36.85,0,0,0,36.77-36.83V36.83A36.85,36.85,0,0,0,475.93,0Z"/><path class="cls-2" d="M456.2,384.69V657.53a5.94,5.94,0,0,1-5.91,6H62.42a5.92,5.92,0,0,1-5.91-6V600.31a110.57,110.57,0,0,0,16.63,14.82c20.75,14.87,45.78,22.34,73.72,22.34,27,0,56.68-6.94,87.87-20.87,62.56-27.82,123.85-80.54,172.47-148.29A512.27,512.27,0,0,0,456.2,384.69Z"/><path class="cls-2" d="M456.2,62.47v57.22a110.62,110.62,0,0,0-16.63-14.81C398.82,75.66,341.45,75.1,278,103.38c-62.62,27.9-123.84,80.56-172.47,148.31a514.37,514.37,0,0,0-49,83.59V62.47a5.9,5.9,0,0,1,5.91-6H450.29A5.92,5.92,0,0,1,456.2,62.47Z"/><path class="cls-2" d="M344.28,344c0-85.37-2.1-131.59-78.53-131.59S187.16,258.66,187.16,344c0,88.49,2.11,130.82,78.59,130.82S344.28,432.52,344.28,344Zm-94.91,0c0-61.9,2.15-82.18,16.38-82.18s16.33,20.28,16.33,82.18c0,63.27-2.15,81.41-16.33,81.41S249.37,407.3,249.37,344Z"/><path class="cls-3" d="M475.93,10.27H36.78A26.55,26.55,0,0,0,10.27,36.83V683.17a26.55,26.55,0,0,0,26.51,26.56H475.93a26.55,26.55,0,0,0,26.5-26.56V36.83A26.55,26.55,0,0,0,475.93,10.27ZM466.47,359.9V657.54a16.22,16.22,0,0,1-16.17,16.23H62.41a16.22,16.22,0,0,1-16.18-16.23V62.46A16.22,16.22,0,0,1,62.41,46.23H450.3a16.22,16.22,0,0,1,16.17,16.23Z"/><path class="cls-3" d="M265.29,272.17c-5.65,4.88-5.65,50.13-5.65,71.86,0,23.06,0,65.89,5.54,71.13h.06c.25,0,1.18-.05,1.23-.05,5.34-4.83,5.34-47.92,5.34-71.08,0-21.73,0-67-5.85-72Z"/><path class="cls-3" d="M433.55,113.2c-37.65-27-91.42-27.17-151.42-.46-60.91,27.17-120.7,78.64-168.26,145A494.82,494.82,0,0,0,56.5,361V584.4a105.22,105.22,0,0,0,22.65,22.4c37.65,27,91.37,27.17,151.42.46,60.91-27.17,120.7-78.64,168.26-144.9A495.17,495.17,0,0,0,456.2,359V135.65A104.37,104.37,0,0,0,433.55,113.2ZM265.75,485.12c-88.86,0-88.86-56.14-88.86-141.09,0-79.26,0-141.87,88.86-141.87S354.56,264.77,354.56,344C354.56,429,354.56,485.12,265.75,485.12Z"/><path class="cls-3" d="M93.58,142.38c21.57,0,22.14-11.92,22.14-36.88,0-24-.57-37.09-22.14-37.09s-22.13,13-22.13,37.09C71.45,130.46,72.06,142.38,93.58,142.38Zm0-60c4,0,4.63,5.7,4.63,23.11,0,17.87-.62,23-4.63,23S89,123.37,89,105.5C89,88.09,89.58,82.39,93.58,82.39Z"/><path class="cls-3" d="M419.12,577.62c-21.57,0-22.14,13-22.14,37,0,25,.57,36.92,22.14,36.92s22.14-12,22.14-36.92C441.26,590.62,440.64,577.62,419.12,577.62Zm0,60c-4,0-4.63-5.08-4.63-23,0-17.42.62-23.12,4.63-23.12s4.62,5.7,4.62,23.12C423.74,632.53,423.12,637.61,419.12,637.61Z"/></g></g></svg> 