<svg xmlns="http://www.w3.org/2000/svg" viewBox="0 0 512.77 719.98"><defs><style>.cls-1{fill:#16191a;}.cls-2{fill:#2baa07;}.cls-3{fill:#fff;}</style></defs><g id="Layer_2" data-name="Layer 2"><g id="Layer_1-2" data-name="Layer 1"><rect class="cls-1" width="512.77" height="719.98" rx="36.78"/><path class="cls-2" d="M234.79,616.63c-31.18,13.87-60.92,20.81-87.89,20.81-27.94,0-53-7.45-73.71-22.3A113.58,113.58,0,0,1,56.5,600.3v57.27a5.92,5.92,0,0,0,6,5.91H450.37a5.91,5.91,0,0,0,5.9-5.91V384.72a511.94,511.94,0,0,1-49,83.62C358.58,536.09,297.35,588.74,234.79,616.63ZM421.86,639c3,0,4-4.42,4-8.27h17.31c0,14.89-7.86,23.37-21.32,23.37-15.51,0-21.93-7.24-21.93-22,0-17.72,23-25.47,23-38H401.72v-14h42c0,35.39-26.09,34.62-26.09,53.22C417.6,637.39,418.62,639,421.86,639Z"/><path class="cls-2" d="M179.06,470.6H327.35V421.14H252.3c0-44.07,81.42-71.45,81.42-134.06,0-52.24-22.76-77.87-77.51-77.87-47.62,0-75.35,29.89-75.35,82.49H242c0-13.51,3.54-29.12,14.23-29.12,11.4,0,14.94,5.7,14.94,19.93C271.15,348.25,179.06,345.43,179.06,470.6Z"/><path class="cls-2" d="M450.37,56.5H62.46a6,6,0,0,0-6,5.91v272.9a516.7,516.7,0,0,1,49.05-83.62C154.2,183.94,215.42,131.24,278,103.35c63.48-28.25,120.91-27.74,161.59,1.49a110.89,110.89,0,0,1,16.69,14.84V62.41A5.94,5.94,0,0,0,450.37,56.5Zm-340.6,69.75v14h-42c0-35.39,26-34.62,26-53.22,0-4-1-5.65-4.21-5.65-3,0-4,4.42-4,8.27H68.31c0-14.89,7.81-23.37,21.32-23.37,15.51,0,21.93,7.24,21.93,22,0,17.72-23.06,25.47-23.06,38Z"/><path class="cls-3" d="M433.62,113.16C396,86.19,342.19,86,282.2,112.75c-61,27.17-120.71,78.64-168.32,145A495.89,495.89,0,0,0,56.5,361V584.38a104,104,0,0,0,22.65,22.39c37.65,27,91.43,27.23,151.43.46,61-27.12,120.7-78.58,168.32-144.9A497.11,497.11,0,0,0,456.27,359V135.65A105.45,105.45,0,0,0,433.62,113.16ZM294.89,373.63c-13.57,13.3-25.64,25.17-30.31,37.24h62.77a10.3,10.3,0,0,1,10.27,10.27V470.6a10.31,10.31,0,0,1-10.27,10.28H179.06a10.32,10.32,0,0,1-10.28-10.28c0-77,33.34-108.79,60.15-134.37,18.55-17.72,31.95-30.51,31.95-53.72a36.58,36.58,0,0,0-.56-7.35,7.36,7.36,0,0,0-.67-2,12.11,12.11,0,0,0-3.44-.36c-1.18.87-4,7.45-4,18.85A10.3,10.3,0,0,1,242,302H180.86a10.31,10.31,0,0,1-10.28-10.27c0-58.09,32-92.76,85.63-92.76,59.07,0,87.78,28.81,87.78,88.14C344,325.45,317.9,351,294.89,373.63Z"/><path class="cls-3" d="M476,10.27H36.83A26.59,26.59,0,0,0,10.27,36.78V683.2a26.55,26.55,0,0,0,26.56,26.51H476a26.53,26.53,0,0,0,26.5-26.51V36.78A26.57,26.57,0,0,0,476,10.27Zm-9.45,349.64V657.57a16.18,16.18,0,0,1-16.18,16.18H62.46a16.22,16.22,0,0,1-16.23-16.18V62.41A16.22,16.22,0,0,1,62.46,46.23H450.37a16.18,16.18,0,0,1,16.18,16.18Z"/><path class="cls-3" d="M67.8,140.23h42v-14H88.5c0-12.48,23.06-20.23,23.06-37.95,0-14.8-6.42-22-21.93-22-13.51,0-21.32,8.48-21.32,23.37H85.63c0-3.85,1-8.27,4-8.27,3.24,0,4.21,1.65,4.21,5.65C93.84,105.61,67.8,104.84,67.8,140.23Z"/><path class="cls-3" d="M443.69,580.11h-42v14h21.22c0,12.49-23,20.24-23,38,0,14.8,6.42,22,21.93,22,13.46,0,21.32-8.48,21.32-23.37H425.87c0,3.85-1,8.27-4,8.27-3.24,0-4.26-1.59-4.26-5.65C417.6,614.73,443.69,615.5,443.69,580.11Z"/></g></g></svg> 